<?xml version="1.0" encoding="UTF-8"?>
<svg xmlns="http://www.w3.org/2000/svg" version="1.1" width="256" height="200" viewBox="37 67 168 128">
<path fill="white" d="M0 0 C4.77339031 3.38934304 7.78189795 6.90380044 9.4375 12.5625 C10.67126744 20.7397958 10.18264805 27.64270913 5.31640625 34.49609375 C0.15331812 40.17441728 -4.8835841 41.86132297 -12.5 42.25 C-19.47403287 41.96380859 -24.37781981 40.27673662 -29.5625 35.5625 C-34.72907724 29.83357422 -35.4103451 23.53235703 -35.1015625 16.0078125 C-34.09955627 9.60368574 -31.43975809 5.15732785 -26.65234375 0.83984375 C-18.78958324 -4.436289 -8.23918131 -4.40242822 0 0 Z " transform="translate(131.5625,113.4375)"/>
<path fill="white" d="M0 0 C14.72978815 4.44917355 24.66627227 14.88872579 32 28 C39.55423493 42.48894266 41.79632033 59.80799267 38 75.875 C37.39928283 77.60762405 36.72384729 79.31509872 36 81 C35.7525 81.59441895 35.505 82.18883789 35.25 82.80126953 C29.10977836 97.23860781 20.34457391 108.81695999 6 116 C4.0132116 116.70506474 2.01559422 117.3820806 0 118 C-0.49084275 114.55046623 -0.66615022 111.43403021 0 108 C2.27215605 105.40407617 5.09770871 103.82736859 8 102 C17.65402974 94.3893718 23.90578193 81.94414203 26 70 C26.15210938 69.14277344 26.30421875 68.28554687 26.4609375 67.40234375 C28.53935989 51.72180152 24.20889016 36.92599846 14.89453125 24.32421875 C9.31709092 17.42193802 9.31709092 17.42193802 2 12.6875 C0 11 0 11 -0.30078125 8.3828125 C-0.31151691 5.57007055 -0.21422155 2.80392207 0 0 Z " transform="translate(158,73)"/>
<path fill="white" d="M0 0 C0.4834277 3.77342174 0.67144373 7.24199712 0 11 C-2.24496907 13.6619735 -5.05306032 15.19129628 -8 17 C-17.65803883 24.59292901 -23.90801337 37.06858471 -26 49 C-26.15210938 49.85722656 -26.30421875 50.71445313 -26.4609375 51.59765625 C-28.53935989 67.27819848 -24.20889016 82.07400154 -14.89453125 94.67578125 C-9.29571989 101.56751792 -9.29571989 101.56751792 -2 106.375 C0 108 0 108 0.30078125 110.39453125 C0.31150403 112.95012599 0.21493735 115.45418655 0 118 C-14.72978815 113.55082645 -24.66627227 103.11127421 -32 90 C-39.55423493 75.51105734 -41.79632033 58.19200733 -38 42.125 C-37.39928283 40.39237595 -36.72384729 38.68490128 -36 37 C-35.7525 36.40558105 -35.505 35.81116211 -35.25 35.19873047 C-29.74690642 22.25945429 -16.29020886 0 0 0 Z " transform="translate(81,73)"/>
<path fill="white" d="M0 88C-.5111 84.8698-.6495 82.1177 0 79 1.7581 76.9008 3.6671 75.4051 5.8359 73.7383 12.6249 68.2851 17.3939 59.5352 19 51 19.7214 39.2078 18.8584 29.4835 13 19 8 13 8 13 8 13 5 10 5 10 5 10 4.0409 9.5359 4.0409 9.5359 3.0625 9.0625 1 8 1 8-0 7-.1412 4.3294-.0425 1.6757 0 0 5 2 5 2 7 3 7 3 7 3 7 3 10 5 10 5 12.7578 6.7656 20.1304 10.8244 24.8985 18.9918 27.9297 26.5781 29.5528 32.1989 29.5807 37.9362 29.625 43.75 29.636 44.8032 29.6469 45.8563 29.6582 46.9414 29.4875 56.3009 26.7056 63.6583 21.875 71.625 21.3774 72.4629 20.8798 73.3008 20.3672 74.1641 19.6904 75.0729 19.6904 75.0729 19 76 18 77 18 77 17 78 17 78 16 79 16 79 15 80 15 80 15 80 14 81 14 81 13 82 10.8203 83.6055 10.8203 83.6055 8.125 85.1875 6.7986 85.9822 6.7986 85.9822 5.4453 86.793 3 88 3 88 0 88Z" transform="translate(136,89)"/>
<path fill="white" d="M0 0C.5111 3.1302.6495 5.8823 0 9-1.7581 11.0992-3.6671 12.5949-5.8359 14.2617-12.6249 19.7149-17.3939 28.4648-19 37-19.7214 48.7922-18.8584 58.5165-13 69-8 75-8 75-8 75-5 78-5 78-5 78-4.0409 78.4641-4.0409 78.4641-3.0625 78.9375-1 80-1 80 0 81 .1412 83.6706.0425 86.3243 0 87-5 86-4 86-7 85-7 85-7 85-7 85-10 83-10 83-12.7578 81.2344-20.1304 77.1756-24.8985 69.0082-27.9297 61.4219-29.5528 55.8011-29.5807 50.0638-29.625 44.25-29.636 43.1968-29.6469 42.1437-29.6582 41.0586-29.4875 31.6991-26.7056 24.3417-21.875 16.375-21.3774 15.5371-20.8798 14.6992-20.3672 13.8359-19.6904 12.9271-19.6904 12.9271-19 12-18 11-18 11-17 10-17 10-16 9-16 9-15 8-15 8-15 8-14 7-14 7-13 6-10.8203 4.3945-10.8203 4.3945-8.125 2.8125-6.7986 2.0178-6.7986 2.0178-5.4453 1.207-3 0-3 0 0 0Z" transform="translate(103,89)"/>
</svg>